<svg width="22" height="26" viewBox="0 0 22 26" fill="none" xmlns="http://www.w3.org/2000/svg">
<path d="M10.9986 13.9995C14.8586 13.9995 17.9986 10.8595 17.9986 6.99951C17.9986 3.13951 14.8586 -0.000488281 10.9986 -0.000488281C7.13862 -0.000488281 3.99862 3.13951 3.99862 6.99951C3.99862 10.8595 7.13862 13.9995 10.9986 13.9995ZM10.9986 1.99951C13.7559 1.99951 15.9986 4.24218 15.9986 6.99951C15.9986 9.75684 13.7559 11.9995 10.9986 11.9995C8.24128 11.9995 5.99862 9.75684 5.99862 6.99951C5.99862 4.24218 8.24128 1.99951 10.9986 1.99951ZM21.3319 20.9556V22.3035C21.3319 23.5502 20.8773 24.7448 20.0506 25.6662C19.8533 25.8875 19.5799 25.9995 19.3053 25.9995C19.0679 25.9995 18.8293 25.9155 18.6386 25.7448C18.2266 25.3768 18.1933 24.7448 18.5613 24.3328C19.0586 23.7768 19.3333 23.0568 19.3333 22.3048V20.9569C19.3333 18.9382 17.9946 17.1915 16.0759 16.7101C15.7386 16.6248 15.376 16.6715 15.0813 16.8382C12.5466 18.2489 9.44526 18.2435 6.92659 16.8421C6.62526 16.6701 6.26263 16.6208 5.92529 16.7088C4.00663 17.1915 2.66659 18.9382 2.66659 20.9569V22.3048C2.66659 23.0582 2.94131 23.7782 3.43864 24.3328C3.80664 24.7448 3.77191 25.3768 3.36125 25.7448C2.94791 26.1141 2.31597 26.0781 1.9493 25.6675C1.12263 24.7448 0.667969 23.5502 0.667969 22.3048V20.9569C0.667969 18.0209 2.62926 15.4768 5.43726 14.7702C6.26792 14.5595 7.17059 14.6796 7.90926 15.1009C9.81593 16.1622 12.1787 16.1662 14.1013 15.0968C14.8307 14.6808 15.7333 14.5622 16.5666 14.7715C19.3706 15.4742 21.3319 18.0182 21.3319 20.9556Z" fill="#3A7F8F"/>
</svg>
